<svg width="290" height="27" viewBox="0 0 290 27" fill="none" xmlns="http://www.w3.org/2000/svg">
<path d="M48.9754 15.7688C48.4706 14.6463 47.8382 13.7011 47.0468 12.8854C43.8499 10.6775 40.2888 9.58839 36.392 9.58839C33.9578 9.58839 31.4737 10.0172 29.008 10.8643C26.9824 11.903 25.7344 13.4171 24.943 15.7679H1.32482C0.848699 15.7679 0.461334 15.3686 0.461334 14.8779V2.36644C0.461334 1.8757 0.848699 1.47644 1.32482 1.47644H73.6733C74.1495 1.47644 74.5368 1.8757 74.5368 2.36644V14.8779C74.5368 15.3686 74.1495 15.7679 73.6733 15.7679H48.9754V15.7688Z" fill="#303030"/>
<path d="M73.6733 1.95289C73.8943 1.95289 74.0746 2.1387 74.0746 2.36644V14.8788C74.0746 15.1066 73.8943 15.2924 73.6733 15.2924H49.2666C48.7609 14.2385 48.1387 13.3361 47.3741 12.549L47.3094 12.4823L47.2336 12.4299C44.0302 10.2287 40.3821 9.11195 36.3929 9.11195C33.9088 9.11195 31.3757 9.54932 28.8629 10.4126L28.8009 10.4336L28.7418 10.4641C26.2752 11.7352 25.1945 13.7068 24.6185 15.2924H1.32573C1.10478 15.2924 0.924499 15.1066 0.924499 14.8788V2.36644C0.924499 2.1387 1.10478 1.95289 1.32573 1.95289H73.6733ZM73.6733 1H1.32573C0.593529 1 0 1.61176 0 2.36644V14.8788C0 15.6335 0.593529 16.2453 1.32573 16.2453H25.2777C25.898 14.2356 26.9251 12.4661 29.155 11.3169C31.4524 10.5279 33.9088 10.0648 36.392 10.0648C39.9042 10.0648 43.4709 10.9891 46.7205 13.2227C47.6043 14.1337 48.2191 15.1561 48.6758 16.2453H73.6743C74.4065 16.2453 75 15.6335 75 14.8788V2.36644C74.9991 1.61176 74.4055 1 73.6733 1Z" fill="#191919"/>
<path d="M32.5997 3.55186H5.04404V22.765H32.5997V3.55186Z" fill="#44668E"/>
<path d="M69.5492 3.55185H41.9935V22.765H69.5492V3.55185Z" fill="#A52929"/>
<path d="M43.9313 25.5236C43.1926 25.5236 42.5057 24.9528 42.1812 24.0694C39.4197 16.5454 37.9738 16.5454 37.4995 16.5454C37.0253 16.5454 35.5794 16.5454 32.8179 24.0694C32.4934 24.9528 31.8074 25.5236 31.0678 25.5236H9.74238C6.49554 25.5236 3.85425 22.1303 3.85425 17.9595V5.16793C3.85425 3.13256 5.12358 1.47644 6.68414 1.47644H68.3159C69.8764 1.47644 71.1458 3.13256 71.1458 5.16793V17.9595C71.1458 22.1303 68.5045 25.5236 65.2576 25.5236H43.9313ZM46.1769 4.40658C44.4721 4.40658 43.0854 5.83591 43.0854 7.59304V18.8905C43.0854 20.6476 44.4721 22.077 46.1769 22.077H65.3658C67.0706 22.077 68.4573 20.6476 68.4573 18.8905V7.59304C68.4573 5.83591 67.0706 4.40658 65.3658 4.40658H46.1769ZM9.63329 4.40658C7.92852 4.40658 6.54177 5.83591 6.54177 7.59304V18.8905C6.54177 20.6476 7.92852 22.077 9.63329 22.077H28.8222C30.527 22.077 31.9137 20.6476 31.9137 18.8905V7.59304C31.9137 5.83591 30.527 4.40658 28.8222 4.40658H9.63329Z" fill="#5B5B5B"/>
<path d="M68.3159 1.95289C69.6213 1.95289 70.6835 3.39556 70.6835 5.16794V5.99218V9.92952V17.9595C70.6835 21.8673 68.2493 25.0471 65.2567 25.0471H43.9313C43.3868 25.0471 42.87 24.5973 42.6139 23.9008C39.7396 16.0699 38.1698 16.0699 37.4995 16.0699C36.8293 16.0699 35.2595 16.0699 32.3852 23.9008C32.1301 24.5973 31.6123 25.0471 31.0678 25.0471H9.74238C6.7507 25.0471 4.31557 21.8673 4.31557 17.9595V9.92952V5.99218V5.16794C4.31557 3.39556 5.37782 1.95289 6.68322 1.95289H7.33406H67.6632H68.3159ZM46.1769 22.5534H65.3658C67.3257 22.5534 68.9196 20.9106 68.9196 18.8905V7.59304C68.9196 5.57291 67.3257 3.93013 65.3658 3.93013H46.1769C44.217 3.93013 42.6231 5.57291 42.6231 7.59304V18.8905C42.6231 20.9097 44.2179 22.5534 46.1769 22.5534ZM9.63329 22.5534H28.8222C30.7821 22.5534 32.376 20.9106 32.376 18.8905V7.59304C32.376 5.57291 30.7821 3.93013 28.8222 3.93013H9.63329C7.67335 3.93013 6.07952 5.57291 6.07952 7.59304V18.8905C6.07952 20.9097 7.67335 22.5534 9.63329 22.5534ZM68.3159 1H67.665H7.33499H6.68414C4.86565 1 3.392 2.86576 3.392 5.16794V5.99218V9.92952V17.9595C3.392 22.4 6.23576 26 9.74331 26H31.0687C32.0071 26 32.8549 25.3158 33.2506 24.2381C34.2102 21.6234 36.098 17.0228 37.5005 17.0228C38.9029 17.0228 40.7908 21.6243 41.7504 24.2381C42.1461 25.3158 42.9939 26 43.9322 26H65.2576C68.7652 26 71.6089 22.4 71.6089 17.9595V9.92952V5.99218V5.16794C71.608 2.86671 70.1335 1 68.3159 1ZM46.1769 21.6005C44.7245 21.6005 43.5476 20.3875 43.5476 18.8905V7.59304C43.5476 6.09605 44.7245 4.88302 46.1769 4.88302H65.3658C66.8182 4.88302 67.9951 6.09605 67.9951 7.59304V18.8905C67.9951 20.3875 66.8182 21.6005 65.3658 21.6005H46.1769ZM9.63329 21.6005C8.1809 21.6005 7.00402 20.3875 7.00402 18.8905V7.59304C7.00402 6.09605 8.1809 4.88302 9.63329 4.88302H28.8222C30.2746 4.88302 31.4515 6.09605 31.4515 7.59304V18.8905C31.4515 20.3875 30.2746 21.6005 28.8222 21.6005H9.63329Z" fill="#191919"/>
<path d="M116.369 27H109.887L99.6095 16.7126H96.3946V12.1131H99.6095L109.887 1.82575H116.369L103.422 14.4129L116.369 27ZM94.5676 27H90V1.82575H94.5676V27Z" fill="#DBDEE5"/>
<path d="M126.959 4.12549H122.391V0H126.959V4.12549ZM126.959 27H122.391V8.02276H126.959V27Z" fill="#DBDEE5"/>
<path d="M155.994 27H151.427V16.4668C151.427 15.87 151.321 15.3375 151.111 14.8693C150.912 14.3895 150.636 13.9798 150.285 13.6404C149.934 13.301 149.518 13.0436 149.038 12.868C148.569 12.6808 148.06 12.5871 147.509 12.5871H139.516V27H134.948V10.2874C134.948 9.97139 135.007 9.6788 135.124 9.40962C135.241 9.12874 135.405 8.88882 135.616 8.68986C135.827 8.47919 136.073 8.31534 136.354 8.19831C136.635 8.08127 136.934 8.02276 137.25 8.02276H147.544C148.118 8.02276 148.721 8.08713 149.354 8.21587C149.998 8.3446 150.63 8.55527 151.251 8.84785C151.884 9.12874 152.481 9.49155 153.043 9.93628C153.617 10.3693 154.121 10.9018 154.554 11.5338C154.999 12.1541 155.35 12.8739 155.608 13.6931C155.866 14.5124 155.994 15.4369 155.994 16.4668V27Z" fill="#DBDEE5"/>
<path d="M184.257 20.5923C184.257 21.3765 184.158 22.0845 183.959 22.7165C183.759 23.3368 183.496 23.8869 183.168 24.3667C182.84 24.8349 182.459 25.2386 182.026 25.578C181.593 25.9057 181.136 26.1749 180.656 26.3856C180.187 26.5962 179.707 26.7542 179.215 26.8596C178.735 26.9532 178.278 27 177.845 27H169.606C168.973 27 168.282 26.8888 167.533 26.6665C166.783 26.4441 166.086 26.0813 165.442 25.578C164.81 25.0631 164.277 24.4018 163.844 23.5943C163.422 22.775 163.211 21.7744 163.211 20.5923V14.4129C163.211 13.2425 163.422 12.2536 163.844 11.446C164.277 10.6268 164.81 9.96554 165.442 9.46229C166.086 8.94733 166.783 8.57867 167.533 8.35631C168.282 8.13394 168.973 8.02276 169.606 8.02276H177.845C179.016 8.02276 180.012 8.23342 180.831 8.65475C181.651 9.07607 182.313 9.60858 182.817 10.2523C183.32 10.8843 183.683 11.5748 183.906 12.3238C184.14 13.0728 184.257 13.7692 184.257 14.4129V20.5923ZM179.69 14.448C179.69 13.816 179.531 13.3479 179.215 13.0436C178.899 12.7393 178.442 12.5871 177.845 12.5871H169.641C169.032 12.5871 168.569 12.7451 168.253 13.0611C167.937 13.3654 167.779 13.816 167.779 14.4129V20.5923C167.779 21.1892 167.937 21.6456 168.253 21.9616C168.569 22.2776 169.032 22.4356 169.641 22.4356H177.845C178.466 22.4356 178.928 22.2776 179.233 21.9616C179.537 21.6456 179.69 21.1892 179.69 20.5923V14.448Z" fill="#DBDEE5"/>
<path d="M208.919 12.5871H200.943V27H196.323V12.5871H190.385V8.02276H196.323V1.82575H200.943V8.02276H208.919V12.5871Z" fill="#DBDEE5"/>
<path d="M235.881 14.3075C235.881 14.9395 235.77 15.6242 235.548 16.3615C235.325 17.0871 234.962 17.7659 234.458 18.3979C233.966 19.0182 233.316 19.539 232.508 19.9603C231.712 20.3817 230.74 20.5923 229.592 20.5923H221.353V16.2562H229.592C230.213 16.2562 230.693 16.0689 231.033 15.6944C231.372 15.3082 231.542 14.8342 231.542 14.2724C231.542 13.6756 231.349 13.2074 230.962 12.868C230.588 12.5286 230.131 12.3589 229.592 12.3589H221.353C220.732 12.3589 220.252 12.552 219.912 12.9382C219.573 13.3127 219.403 13.7809 219.403 14.3427V20.7152C219.403 21.3238 219.59 21.7978 219.965 22.1372C220.352 22.4766 220.826 22.6463 221.388 22.6463H229.592V27H221.353C220.72 27 220.035 26.8888 219.297 26.6665C218.571 26.4441 217.892 26.0871 217.26 25.5956C216.639 25.0923 216.118 24.4428 215.696 23.6469C215.274 22.8394 215.064 21.8622 215.064 20.7152V14.3075C215.064 13.6756 215.175 12.9967 215.397 12.2711C215.62 11.5338 215.977 10.855 216.469 10.2347C216.973 9.60273 217.623 9.07607 218.419 8.65475C219.227 8.23342 220.205 8.02276 221.353 8.02276H229.592C230.225 8.02276 230.904 8.13394 231.63 8.35631C232.368 8.57867 233.047 8.94148 233.668 9.44473C234.3 9.93628 234.827 10.5858 235.249 11.3934C235.67 12.1892 235.881 13.1606 235.881 14.3075Z" fill="#DBDEE5"/>
<path d="M264.864 27H258.276L249.071 18.117C248.556 17.6489 248.316 17.0637 248.351 16.3615C248.374 16.0338 248.456 15.7295 248.597 15.4486C248.749 15.156 248.954 14.9103 249.212 14.7113L257.556 7.98765H264.864L254.113 16.6424L264.864 27ZM247.191 27H242.624V0H247.191V27Z" fill="#DBDEE5"/>
<path d="M290 20.7152C290 21.3472 289.889 22.0319 289.666 22.7692C289.444 23.4948 289.081 24.1736 288.577 24.8056C288.085 25.4259 287.435 25.9467 286.627 26.368C285.831 26.7893 284.859 27 283.711 27H275.472C274.839 27 274.154 26.8888 273.416 26.6665C272.69 26.4441 272.011 26.0871 271.378 25.5956C270.758 25.0923 270.236 24.4428 269.815 23.6469C269.393 22.8394 269.182 21.8622 269.182 20.7152C269.182 20.0832 269.294 19.3986 269.516 18.6612C269.739 17.9239 270.096 17.2451 270.588 16.6248C271.091 15.9928 271.741 15.4662 272.538 15.0449C273.346 14.6235 274.324 14.4129 275.472 14.4129H283.711V18.7666H275.472C274.851 18.7666 274.371 18.9597 274.031 19.3459C273.691 19.7204 273.522 20.1886 273.522 20.7503C273.522 21.3472 273.715 21.8153 274.101 22.1547C274.5 22.4824 274.968 22.6463 275.507 22.6463H283.711C284.332 22.6463 284.812 22.459 285.151 22.0845C285.491 21.71 285.661 21.2419 285.661 20.6801V14.3075C285.661 13.7107 285.473 13.2367 285.099 12.8856C284.736 12.5345 284.273 12.3589 283.711 12.3589H273.68V8.02276H283.711C284.343 8.02276 285.023 8.13394 285.749 8.35631C286.486 8.57867 287.166 8.94148 287.786 9.44473C288.419 9.93628 288.946 10.5858 289.368 11.3934C289.789 12.1892 290 13.1606 290 14.3075V20.7152Z" fill="#DBDEE5"/>
</svg>
