<svg width="15" height="15" viewBox="0 0 15 15" fill="#DBDEE5" xmlns="http://www.w3.org/2000/svg">
<path fill-rule="evenodd" clip-rule="evenodd" d="M14.8167 0.183594C14.8748 0.241644 14.921 0.310604 14.9525 0.386526C14.984 0.462448 15.0002 0.543839 15.0002 0.626038C15.0002 0.708236 14.984 0.789628 14.9525 0.865549C14.921 0.941471 14.8748 1.01043 14.8167 1.06848L1.0684 14.8167C0.951055 14.9341 0.791903 15 0.625954 15C0.460006 15 0.300854 14.9341 0.18351 14.8167C0.0661668 14.6994 0.000244141 14.5402 0.000244141 14.3743C0.000244141 14.2083 0.0661668 14.0492 0.18351 13.9318L13.9318 0.183594C13.9898 0.125397 14.0588 0.0792246 14.1347 0.0477206C14.2106 0.0162165 14.292 0 14.3742 0C14.4564 0 14.5378 0.0162165 14.6137 0.0477206C14.6896 0.0792246 14.7586 0.125397 14.8167 0.183594V0.183594Z" />
<path fill-rule="evenodd" clip-rule="evenodd" d="M0.183594 0.183594C0.125397 0.241644 0.0792246 0.310604 0.0477206 0.386526C0.0162165 0.462448 0 0.543839 0 0.626038C0 0.708236 0.0162165 0.789628 0.0477206 0.865549C0.0792246 0.941471 0.125397 1.01043 0.183594 1.06848L13.9318 14.8167C14.0492 14.9341 14.2083 15 14.3743 15C14.5402 15 14.6994 14.9341 14.8167 14.8167C14.9341 14.6994 15 14.5402 15 14.3743C15 14.2083 14.9341 14.0492 14.8167 13.9318L1.06848 0.183594C1.01043 0.125397 0.941471 0.0792246 0.865549 0.0477206C0.789628 0.0162165 0.708236 0 0.626038 0C0.543839 0 0.462448 0.0162165 0.386526 0.0477206C0.310604 0.0792246 0.241644 0.125397 0.183594 0.183594V0.183594Z" />
</svg>
