<svg width="15" height="12" viewBox="0 0 15 12" fill="none" xmlns="http://www.w3.org/2000/svg">
<path d="M13.2759 0.310517C13.369 0.212203 13.4801 0.134101 13.6027 0.0807821C13.7252 0.0274634 13.8569 0 13.9898 0C14.1228 0 14.2544 0.0274634 14.377 0.0807821C14.4996 0.134101 14.6106 0.212203 14.7037 0.310517C15.0937 0.718545 15.0992 1.37789 14.7173 1.79297L6.65399 11.6619C6.56244 11.766 6.45134 11.8496 6.3275 11.9077C6.20365 11.9658 6.06965 11.9972 5.93371 11.9998C5.79777 12.0025 5.66273 11.9764 5.53686 11.9231C5.411 11.8699 5.29694 11.7906 5.20169 11.6901L0.295222 6.54248C0.105996 6.34269 0 6.07402 0 5.7942C0 5.51437 0.105996 5.24571 0.295222 5.04591C0.388287 4.94759 0.499361 4.86949 0.621941 4.81617C0.74452 4.76285 0.876142 4.73539 1.0091 4.73539C1.14206 4.73539 1.27368 4.76285 1.39626 4.81617C1.51884 4.86949 1.62991 4.94759 1.72298 5.04591L5.88488 9.4128L13.2487 0.341578C13.2571 0.330667 13.2663 0.320294 13.2759 0.310517Z" fill="#151C26"/>
</svg>
