<svg width="14" height="14" viewBox="0 0 14 14" fill="none" xmlns="http://www.w3.org/2000/svg">
<path d="M7 0.875C7.74261 0.875 8.4548 1.05937 8.9799 1.38756C9.505 1.71575 9.8 2.16087 9.8 2.625V6.125H4.2V2.625C4.2 2.16087 4.495 1.71575 5.0201 1.38756C5.5452 1.05937 6.25739 0.875 7 0.875ZM11.2 6.125V2.625C11.2 1.92881 10.7575 1.26113 9.96985 0.768845C9.1822 0.276562 8.11391 0 7 0C5.88609 0 4.8178 0.276562 4.03015 0.768845C3.2425 1.26113 2.8 1.92881 2.8 2.625V6.125C2.05739 6.125 1.3452 6.30937 0.820101 6.63756C0.294999 6.96575 0 7.41087 0 7.875V12.25C0 12.7141 0.294999 13.1592 0.820101 13.4874C1.3452 13.8156 2.05739 14 2.8 14H11.2C11.9426 14 12.6548 13.8156 13.1799 13.4874C13.705 13.1592 14 12.7141 14 12.25V7.875C14 7.41087 13.705 6.96575 13.1799 6.63756C12.6548 6.30937 11.9426 6.125 11.2 6.125ZM2.8 7H11.2C11.5713 7 11.9274 7.09219 12.1899 7.25628C12.4525 7.42038 12.6 7.64294 12.6 7.875V12.25C12.6 12.4821 12.4525 12.7046 12.1899 12.8687C11.9274 13.0328 11.5713 13.125 11.2 13.125H2.8C2.4287 13.125 2.0726 13.0328 1.81005 12.8687C1.5475 12.7046 1.4 12.4821 1.4 12.25V7.875C1.4 7.64294 1.5475 7.42038 1.81005 7.25628C2.0726 7.09219 2.4287 7 2.8 7Z" fill="#DBDEE5"/>
</svg>
