<svg width="14" height="14" viewBox="0 0 14 14" fill="none" xmlns="http://www.w3.org/2000/svg">
<path d="M7 7C7.92826 7 8.8185 6.63125 9.47487 5.97487C10.1313 5.3185 10.5 4.42826 10.5 3.5C10.5 2.57174 10.1313 1.6815 9.47487 1.02513C8.8185 0.368749 7.92826 0 7 0C6.07174 0 5.1815 0.368749 4.52513 1.02513C3.86875 1.6815 3.5 2.57174 3.5 3.5C3.5 4.42826 3.86875 5.3185 4.52513 5.97487C5.1815 6.63125 6.07174 7 7 7ZM9.33333 3.5C9.33333 4.11884 9.0875 4.71233 8.64991 5.14992C8.21233 5.5875 7.61884 5.83333 7 5.83333C6.38116 5.83333 5.78767 5.5875 5.35008 5.14992C4.9125 4.71233 4.66667 4.11884 4.66667 3.5C4.66667 2.88116 4.9125 2.28767 5.35008 1.85008C5.78767 1.4125 6.38116 1.16667 7 1.16667C7.61884 1.16667 8.21233 1.4125 8.64991 1.85008C9.0875 2.28767 9.33333 2.88116 9.33333 3.5ZM14 12.8333C14 14 12.8333 14 12.8333 14H1.16667C1.16667 14 0 14 0 12.8333C0 11.6667 1.16667 8.16667 7 8.16667C12.8333 8.16667 14 11.6667 14 12.8333ZM12.8333 12.8287C12.8322 12.5417 12.6537 11.6783 11.8627 10.8873C11.102 10.1267 9.6705 9.33333 7 9.33333C4.32833 9.33333 2.898 10.1267 2.13733 10.8873C1.34633 11.6783 1.169 12.5417 1.16667 12.8287H12.8333Z" fill="#DBDEE5"/>
</svg>
