<svg width="34" height="30" viewBox="0 0 34 30" fill="none" xmlns="http://www.w3.org/2000/svg">
<path d="M33.0306 13.2993C33.0914 13.1662 33.0914 13.0162 33.0306 12.8825C32.9999 12.8155 32.9554 12.7549 32.9001 12.7042L25.6839 6.15982C25.4488 5.94655 25.0687 5.94655 24.8336 6.15982C24.5984 6.37309 24.5984 6.71782 24.8336 6.93109L31.0238 12.5455H21.6504V0.545455C21.6504 0.243818 21.3815 0 21.049 0H0.601399C0.582154 0 0.565315 0.00818182 0.546671 0.00981818C0.512993 0.0125455 0.483525 0.0196364 0.45165 0.0272727C0.395119 0.0409091 0.344601 0.0594546 0.295888 0.0861818C0.280252 0.0949091 0.261007 0.0949091 0.246573 0.104727C0.22793 0.117273 0.213497 0.133091 0.196657 0.146727C0.186434 0.155455 0.175608 0.163091 0.165986 0.172364C0.12028 0.217091 0.082993 0.266727 0.0553287 0.321273C0.0499161 0.332182 0.0469091 0.343091 0.0420979 0.354C0.0168392 0.415091 0 0.478909 0 0.545455V25.6364C0 25.7045 0.0174406 25.7689 0.0433007 25.83C0.0517203 25.8502 0.0643497 25.8671 0.0751748 25.8862C0.0974266 25.9249 0.122685 25.9604 0.154559 25.9931C0.172 26.0105 0.189441 26.0264 0.208685 26.0422C0.243566 26.07 0.282657 26.0929 0.324755 26.1131C0.347007 26.124 0.367455 26.1355 0.391511 26.1436C0.401734 26.1469 0.409552 26.1535 0.419776 26.1567L13.6505 29.9749C13.7095 29.9913 13.7708 30 13.8322 30C13.9585 30 14.083 29.964 14.187 29.8953C14.3422 29.7927 14.4336 29.6291 14.4336 29.4545V26.1818H21.049C21.3815 26.1818 21.6504 25.938 21.6504 25.6364V13.6364H31.0238L24.8336 19.2507C24.5984 19.464 24.5984 19.8087 24.8336 20.022C24.9508 20.1284 25.1048 20.1818 25.2587 20.1818C25.4127 20.1818 25.5667 20.1284 25.6839 20.022L32.9001 13.4771C32.9554 13.4269 32.9999 13.3664 33.0306 13.2993ZM13.2308 28.7089L1.2028 25.2376V1.29109L13.2308 4.76236V28.7089ZM20.4476 25.0909H14.4336V4.36364C14.4336 4.12582 14.264 3.91582 14.0144 3.84382L4.47501 1.09091H20.4476V25.0909Z" fill="#DBDEE5"/>
<path d="M12.2511 16.9478L9.24409 15.8569C8.93798 15.7451 8.58556 15.8804 8.46227 16.1613C8.33899 16.4411 8.48934 16.7585 8.79785 16.8704L11.8048 17.9613C11.8776 17.988 11.9534 18 12.028 18C12.2661 18 12.4922 17.8707 12.5867 17.6569C12.7094 17.3771 12.559 17.0596 12.2511 16.9478Z" fill="#DBDEE5"/>
</svg>
